<svg width="85" height="85" viewBox="0 0 85 85" fill="none" xmlns="http://www.w3.org/2000/svg">
<path d="M42.5 9.5C24.251 9.5 9.5 24.35 9.5 42.5C9.5 51.2521 12.9768 59.6458 19.1655 65.8345C22.2298 68.8989 25.8677 71.3296 29.8714 72.988C33.8752 74.6464 38.1664 75.5 42.5 75.5C51.2521 75.5 59.6458 72.0232 65.8345 65.8345C72.0232 59.6458 75.5 51.2521 75.5 42.5C75.5 38.1664 74.6464 33.8752 72.988 29.8714C71.3296 25.8677 68.8989 22.2298 65.8345 19.1655C62.7702 16.1011 59.1323 13.6704 55.1286 12.012C51.1248 10.3536 46.8336 9.5 42.5 9.5ZM42.5 68.9C35.4983 68.9 28.7833 66.1186 23.8324 61.1676C18.8814 56.2167 16.1 49.5017 16.1 42.5C16.1 35.4983 18.8814 28.7833 23.8324 23.8324C28.7833 18.8814 35.4983 16.1 42.5 16.1C49.5017 16.1 56.2167 18.8814 61.1676 23.8324C66.1186 28.7833 68.9 35.4983 68.9 42.5C68.9 49.5017 66.1186 56.2167 61.1676 61.1676C56.2167 66.1186 49.5017 68.9 42.5 68.9Z" fill="#DD6B55"/>
<path d="M59.5 29.6408L55.351 25.5L42.5122 38.3136L29.6734 25.5L25.5 29.6408L38.3388 42.4544L25.5 55.2941L29.649 59.4349L42.4878 46.5952L55.3266 59.4105L59.5 55.2697L46.6612 42.4544L59.5 29.6408Z" fill="#DD6B55"/>
</svg>
