<svg width="85" height="85" viewBox="0 0 85 85" fill="none" xmlns="http://www.w3.org/2000/svg">
<path d="M39.25 52.25H45.75V58.75H39.25V52.25ZM39.25 26.25H45.75V45.75H39.25V26.25ZM42.5 10C24.5275 10 10 24.625 10 42.5C10 51.1195 13.4241 59.386 19.519 65.481C22.5369 68.4989 26.1197 70.8928 30.0628 72.5261C34.0059 74.1594 38.232 75 42.5 75C51.1195 75 59.386 71.5759 65.481 65.481C71.5759 59.386 75 51.1195 75 42.5C75 38.232 74.1594 34.0059 72.5261 30.0628C70.8928 26.1197 68.4989 22.5369 65.481 19.519C62.4631 16.5011 58.8803 14.1072 54.9372 12.4739C50.9941 10.8406 46.768 10 42.5 10ZM42.5 68.5C35.6044 68.5 28.9912 65.7607 24.1152 60.8848C19.2393 56.0088 16.5 49.3956 16.5 42.5C16.5 35.6044 19.2393 28.9912 24.1152 24.1152C28.9912 19.2393 35.6044 16.5 42.5 16.5C49.3956 16.5 56.0088 19.2393 60.8848 24.1152C65.7607 28.9912 68.5 35.6044 68.5 42.5C68.5 49.3956 65.7607 56.0088 60.8848 60.8848C56.0088 65.7607 49.3956 68.5 42.5 68.5Z" fill="#FEB96B"/>
</svg>
