<svg width="25" height="25" viewBox="0 0 25 25" fill="none" xmlns="http://www.w3.org/2000/svg">
<path fill-rule="evenodd" clip-rule="evenodd" d="M5.80845 20.1C5.80845 19.055 6.65372 18.2 7.69843 18.2C8.74314 18.2 9.59791 19.055 9.59791 20.1C9.59791 21.145 8.74314 22 7.69843 22C6.65372 22 5.80845 21.145 5.80845 20.1ZM2.94974 4.9C2.42738 4.9 2 4.4725 2 3.95C2 3.4275 2.42738 3 2.94974 3H4.50731C4.68649 2.99971 4.86205 3.05049 5.01343 3.14639C5.16481 3.24229 5.28574 3.37934 5.36207 3.5415L5.9984 4.9H20.0545C20.2192 4.90008 20.3811 4.94318 20.524 5.02504C20.667 5.10689 20.7861 5.22467 20.8695 5.3667C20.953 5.50874 20.998 5.67011 20.9999 5.83485C21.0019 5.9996 20.9608 6.16201 20.8808 6.306L17.4807 12.4715C17.1578 13.0605 16.531 13.45 15.8187 13.45H8.74314L7.69843 15.35H18.1456C18.6679 15.35 19.0953 15.7775 19.0953 16.3C19.0953 16.8225 18.6679 17.25 18.1456 17.25H7.69843C6.25483 17.25 5.34308 15.7015 6.03639 14.4285L7.31854 12.1105L3.89948 4.9H2.94974ZM15.3058 20.1C15.3058 19.055 16.1511 18.2 17.1958 18.2C18.2405 18.2 19.0953 19.055 19.0953 20.1C19.0953 21.145 18.2405 22 17.1958 22C16.1511 22 15.3058 21.145 15.3058 20.1ZM10 8.88091L11.5455 10.3806L16 6L17 7.00777L11.5455 12.3809L9 9.87344L10 8.88091Z" fill="white"/>
</svg>
