<svg width="21" height="19" viewBox="0 0 21 19" fill="none" xmlns="http://www.w3.org/2000/svg">
<path d="M18.1364 5.27778V3.16667C18.1364 1.425 16.8477 0 15.2727 0H5.72727C4.15227 0 2.86364 1.425 2.86364 3.16667V5.27778C1.28864 5.27778 0 6.70278 0 8.44444V13.7222C0 15.4639 1.28864 16.8889 2.86364 16.8889V17.9444C2.86364 18.525 3.29318 19 3.81818 19C4.34318 19 4.77273 18.525 4.77273 17.9444V16.8889H16.2273V17.9444C16.2273 18.525 16.6568 19 17.1818 19C17.7068 19 18.1364 18.525 18.1364 17.9444V16.8889C19.7114 16.8889 21 15.4639 21 13.7222V8.44444C21 6.70278 19.7114 5.27778 18.1364 5.27778ZM4.77273 3.16667C4.77273 2.58611 5.20227 2.11111 5.72727 2.11111H15.2727C15.7977 2.11111 16.2273 2.58611 16.2273 3.16667V6.10111C15.645 6.68167 15.2727 7.51556 15.2727 8.44444V10.5556H5.72727V8.44444C5.72727 7.51556 5.355 6.68167 4.77273 6.10111V3.16667ZM19.0909 13.7222C19.0909 14.3028 18.6614 14.7778 18.1364 14.7778H2.86364C2.33864 14.7778 1.90909 14.3028 1.90909 13.7222V8.44444C1.90909 7.86389 2.33864 7.38889 2.86364 7.38889C3.38864 7.38889 3.81818 7.86389 3.81818 8.44444V12.6667H17.1818V8.44444C17.1818 7.86389 17.6114 7.38889 18.1364 7.38889C18.6614 7.38889 19.0909 7.86389 19.0909 8.44444V13.7222Z" fill="white"/>
</svg>
