<svg width="25" height="25" viewBox="0 0 25 25" fill="none" xmlns="http://www.w3.org/2000/svg">
<path d="M11.55 15.35H13.45V17.25H11.55V15.35ZM11.55 7.75H13.45V13.45H11.55V7.75ZM12.5 3C7.2465 3 3 7.275 3 12.5C3 15.0196 4.00089 17.4359 5.78249 19.2175C6.66464 20.0997 7.71191 20.7994 8.86451 21.2769C10.0171 21.7543 11.2524 22 12.5 22C15.0196 22 17.4359 20.9991 19.2175 19.2175C20.9991 17.4359 22 15.0196 22 12.5C22 11.2524 21.7543 10.0171 21.2769 8.86451C20.7994 7.71191 20.0997 6.66464 19.2175 5.78249C18.3354 4.90033 17.2881 4.20056 16.1355 3.72314C14.9829 3.24572 13.7476 3 12.5 3ZM12.5 20.1C10.4844 20.1 8.55126 19.2993 7.12599 17.874C5.70071 16.4487 4.9 14.5156 4.9 12.5C4.9 10.4844 5.70071 8.55126 7.12599 7.12599C8.55126 5.70071 10.4844 4.9 12.5 4.9C14.5156 4.9 16.4487 5.70071 17.874 7.12599C19.2993 8.55126 20.1 10.4844 20.1 12.5C20.1 14.5156 19.2993 16.4487 17.874 17.874C16.4487 19.2993 14.5156 20.1 12.5 20.1Z" fill="white"/>
</svg>
