<svg width="25" height="25" viewBox="0 0 25 25" fill="none" xmlns="http://www.w3.org/2000/svg">
<path d="M21.4074 6.39898C20.6117 4.77936 18.3195 3.45422 15.6531 4.22574C14.379 4.59074 13.2674 5.37349 12.4999 6.4461C11.7323 5.37349 10.6207 4.59074 9.34659 4.22574C6.67432 3.46599 4.38805 4.77936 3.59231 6.39898C2.47589 8.66645 2.93909 11.2166 4.97001 13.9788C6.5615 16.1403 8.83589 18.3312 12.1376 20.8755C12.242 20.9562 12.3705 21 12.5028 21C12.6352 21 12.7637 20.9562 12.868 20.8755C16.1638 18.3371 18.4442 16.1638 20.0357 13.9788C22.0606 11.2166 22.5238 8.66645 21.4074 6.39898Z" fill="white"/>
</svg>
