<svg width="13" height="21" viewBox="0 0 13 21" fill="none" xmlns="http://www.w3.org/2000/svg">
<path d="M11.5556 0H1.44444C1.06135 0 0.693954 0.158035 0.423068 0.43934C0.152182 0.720644 0 1.10218 0 1.5V19.5C0 19.8978 0.152182 20.2794 0.423068 20.5607C0.693954 20.842 1.06135 21 1.44444 21H11.5556C11.9386 21 12.306 20.842 12.5769 20.5607C12.8478 20.2794 13 19.8978 13 19.5V1.5C13 1.10218 12.8478 0.720644 12.5769 0.43934C12.306 0.158035 11.9386 0 11.5556 0ZM7.22222 19.5H5.77778V18H7.22222V19.5ZM1.44444 16.5V1.5H11.5556V16.5H1.44444Z" fill="white"/>
</svg>
