<svg width="22" height="23" viewBox="0 0 22 23" fill="none" xmlns="http://www.w3.org/2000/svg">
<path d="M10.4091 22.8636C10.7512 23.0462 11.1806 23.0451 11.5227 22.8625C20.846 17.857 21.5081 8.0774 21.4999 5.29669C21.499 5.0732 21.433 4.85482 21.3098 4.66829C21.1866 4.48176 21.0117 4.33519 20.8064 4.24651L11.439 0.0992964C11.2899 0.0336219 11.1287 -0.000199388 10.9658 8.84254e-07C10.8029 0.000201157 10.6418 0.0344184 10.4929 0.100459L1.19062 4.24768C0.988376 4.3364 0.815911 4.48135 0.693774 4.66528C0.571637 4.8492 0.504978 5.06434 0.501739 5.28506C0.462174 8.05181 1.01957 17.8523 10.4091 22.8636ZM7.13458 9.53462L9.80285 12.2014L14.7984 7.20865L16.4438 8.85311L9.80285 15.4903L5.48917 11.1791L7.13458 9.53462Z" fill="#A5DC86"/>
</svg>
