<svg width="25" height="25" viewBox="0 0 25 25" fill="none" xmlns="http://www.w3.org/2000/svg">
<path d="M11.0664 12.9274C12.1085 14.0069 13.3693 14.8403 14.7604 15.3691L16.6423 13.8399C16.6981 13.8006 16.7643 13.7796 16.832 13.7796C16.8998 13.7796 16.9659 13.8006 17.0217 13.8399L20.5161 16.1388C20.6487 16.2203 20.761 16.3321 20.8441 16.4655C20.9271 16.5989 20.9787 16.7501 20.9947 16.9073C21.0106 17.0646 20.9906 17.2234 20.9361 17.3714C20.8817 17.5193 20.7942 17.6523 20.6808 17.7598L19.0434 19.4114C18.809 19.648 18.5208 19.8216 18.2046 19.9168C17.8884 20.012 17.554 20.0257 17.2314 19.9568C14.0127 19.278 11.046 17.6882 8.6703 15.3691C6.34732 13.027 4.73983 10.0468 4.04282 6.79007C3.97397 6.46569 3.98834 6.12864 4.08454 5.8116C4.18075 5.49455 4.35552 5.20826 4.59193 4.98047L6.28917 3.30849C6.3942 3.19828 6.52229 3.11376 6.66384 3.06125C6.80539 3.00875 6.95674 2.98963 7.10655 3.00532C7.25636 3.02101 7.40076 3.07111 7.52892 3.15186C7.65709 3.23261 7.76571 3.34192 7.84664 3.47161L10.1729 6.99397C10.213 7.04928 10.2346 7.11629 10.2346 7.18512C10.2346 7.25396 10.213 7.32097 10.1729 7.37628L8.64035 9.25725C9.17228 10.6493 10.001 11.9031 11.0664 12.9274Z" fill="white"/>
</svg>
