<svg width="17" height="17" viewBox="0 0 17 17" fill="none" xmlns="http://www.w3.org/2000/svg">
<path d="M11.6876 2.65621C11.6875 2.03307 11.9066 1.42974 12.3064 0.951787C12.7063 0.47383 13.2616 0.15168 13.875 0.0416985C14.4884 -0.0682829 15.121 0.0409084 15.662 0.350168C16.2031 0.659428 16.6182 1.14906 16.8346 1.73341C17.0511 2.31775 17.0552 2.9596 16.8461 3.54664C16.6371 4.13369 16.2283 4.62856 15.6912 4.94467C15.1542 5.26078 14.523 5.37799 13.9082 5.27581C13.2935 5.17363 12.7342 4.85856 12.3283 4.38572L5.19051 7.70025C5.3546 8.22021 5.3546 8.77807 5.19051 9.29803L12.3283 12.6126C12.7573 12.1136 13.3564 11.7917 14.0093 11.7092C14.6622 11.6267 15.3226 11.7895 15.8623 12.1661C16.402 12.5426 16.7827 13.1061 16.9306 13.7473C17.0785 14.3885 16.983 15.0618 16.6628 15.6366C16.3425 16.2115 15.8202 16.647 15.1971 16.8587C14.5739 17.0705 13.8944 17.0434 13.2901 16.7827C12.6858 16.5221 12.1998 16.0464 11.9263 15.4478C11.6528 14.8493 11.6113 14.1706 11.8098 13.5432L4.67202 10.2287C4.31867 10.6404 3.84769 10.934 3.32243 11.0701C2.79717 11.2062 2.24283 11.1782 1.73397 10.9898C1.22512 10.8014 0.786174 10.4618 0.476175 10.0165C0.166177 9.57121 0 9.04168 0 8.49914C0 7.9566 0.166177 7.42708 0.476175 6.9818C0.786174 6.53652 1.22512 6.19685 1.73397 6.00848C2.24283 5.82011 2.79717 5.79208 3.32243 5.92816C3.84769 6.06424 4.31867 6.3579 4.67202 6.76964L11.8098 3.4551C11.7285 3.1966 11.6873 2.92718 11.6876 2.65621Z" fill="white"/>
</svg>
