<svg width="17" height="19" viewBox="0 0 17 19" fill="none" xmlns="http://www.w3.org/2000/svg">
<path d="M16.6055 2.71429H11.776V0.678571C11.776 0.498603 11.7031 0.326006 11.5732 0.198749C11.4432 0.0714921 11.2671 0 11.0833 0H5.54167C5.35795 0 5.18176 0.0714921 5.05185 0.198749C4.92194 0.326006 4.84896 0.498603 4.84896 0.678571V2.71429H0.0194823L0 4.41071H1.42871L2.29849 17.7277C2.32051 18.0721 2.4756 18.3953 2.73224 18.6316C2.98887 18.868 3.32777 18.9997 3.68001 19H12.945C13.297 19 13.6358 18.8686 13.8926 18.6327C14.1494 18.3968 14.3048 18.0739 14.3274 17.7298L15.1963 4.41071H16.625L16.6055 2.71429ZM4.84896 16.2857L4.45931 5.42857H5.88802L6.27767 16.2857H4.84896ZM9.00521 16.2857H7.61979V5.42857H9.00521V16.2857ZM10.0443 2.71429H6.58073V1.52679C6.58073 1.48179 6.59897 1.43864 6.63145 1.40683C6.66393 1.37502 6.70798 1.35714 6.75391 1.35714H9.87109C9.91702 1.35714 9.96107 1.37502 9.99355 1.40683C10.026 1.43864 10.0443 1.48179 10.0443 1.52679V2.71429ZM11.776 16.2857H10.3473L10.737 5.42857H12.1657L11.776 16.2857Z" fill="white"/>
</svg>
