<svg width="130" height="150" viewBox="0 0 130 150" fill="none" xmlns="http://www.w3.org/2000/svg">
<path d="M64.6553 0L130 37.5335V112.312L64.6553 74.7783L64.6553 0Z" fill="#D2714E"/>
<path d="M0 37.5337L64.9759 0.144531L64.9759 74.9229L1.6529e-06 112.312L0 37.5337Z" fill="#A45848"/>
<path d="M97.6575 56.146L32.6816 18.7568L65.0239 0.0410156L130 37.4302L97.6575 56.146Z" fill="#F39649"/>
<path d="M0.0488298 37.5605L65.0247 75.1929V149.999L0.0488281 112.339L0.0488298 37.5605Z" fill="#F39649"/>
<path fill-rule="evenodd" clip-rule="evenodd" d="M59.2871 118.099L41.2383 107.713L41.2383 128.485L59.2871 138.871L59.2871 118.099ZM53.6105 121.365L46.9149 117.512L46.9149 125.218L53.6105 129.071L53.6105 121.365Z" fill="white"/>
<path d="M5.00195 89.0469L20.0075 97.9787V103.379L5.00195 94.4475V89.0469Z" fill="#A45848"/>
<path d="M5.00195 97.7715L12.7131 102.341V106.288L5.00195 101.718V97.7715Z" fill="#A45848"/>
<path d="M65.0244 75.1935L130 37.5332V112.312L65.0244 149.972L65.0244 75.1935Z" fill="#D2714E"/>
<path d="M64.8296 75.2062L0.0507812 37.6175L32.6845 18.7559L97.6603 56.145L64.8296 75.2062Z" fill="#FEB96B"/>
<rect width="43.0649" height="42.9574" transform="matrix(0.866745 -0.498752 0 1 81.5176 80.4785)" fill="#A45848"/>
<path d="M96.8391 103.013C95.4172 103.809 94.2667 105.787 94.2667 107.418C94.2667 109.048 95.4172 109.737 96.8391 108.941C98.2611 108.145 99.4245 106.159 99.4245 104.529C99.4245 102.899 98.2611 102.217 96.8391 103.013ZM89.083 85.1265C89.083 85.9416 89.6647 86.2828 90.3757 85.8846L91.6684 85.1607L96.322 93.8029L94.5769 98.3963C93.6333 100.911 94.8742 102.631 96.8391 101.531L111.059 93.5676C111.77 93.1694 112.351 92.1768 112.351 91.3617C112.351 90.5466 111.77 90.2054 111.059 90.6036L96.8391 98.5669L98.2611 94.8066L107.892 89.4132C108.861 88.8703 109.714 87.7849 110.154 86.6199L114.782 74.41C114.89 74.1244 114.946 73.8397 114.944 73.5842C114.941 73.3287 114.88 73.1112 114.766 72.9533C114.653 72.7953 114.491 72.7024 114.296 72.6837C114.101 72.6649 113.881 72.7211 113.657 72.8465L94.5252 83.5608L93.6591 81.9265C93.5552 81.7317 93.3906 81.6101 93.1846 81.5759C92.9785 81.5417 92.7396 81.5963 92.4957 81.7333L90.3757 82.9206C89.6647 83.3188 89.083 84.3114 89.083 85.1265ZM109.766 95.7735C108.344 96.5699 107.194 98.548 107.194 100.178C107.194 101.808 108.344 102.498 109.766 101.702C111.188 100.905 112.351 98.9199 112.351 97.2897C112.351 95.6595 111.188 94.9772 109.766 95.7735Z" fill="white"/>
</svg>
