<svg width="130" height="150" viewBox="0 0 130 150" fill="none" xmlns="http://www.w3.org/2000/svg">
<path d="M64.6553 0L130 37.5335V112.312L64.6553 74.7783L64.6553 0Z" fill="#D2714E"/>
<path d="M0 37.5337L64.9759 0.144531L64.9759 74.9229L1.6529e-06 112.312L0 37.5337Z" fill="#A45848"/>
<path d="M97.6575 56.146L32.6816 18.7568L65.0239 0.0410156L130 37.4302L97.6575 56.146Z" fill="#F39649"/>
<path d="M0.0488298 37.5605L65.0247 75.1929V149.999L0.0488281 112.339L0.0488298 37.5605Z" fill="#F39649"/>
<path fill-rule="evenodd" clip-rule="evenodd" d="M59.2871 118.099L41.2383 107.713L41.2383 128.485L59.2871 138.871L59.2871 118.099ZM53.6105 121.365L46.9149 117.512L46.9149 125.218L53.6105 129.071L53.6105 121.365Z" fill="white"/>
<path d="M5.00195 89.0469L20.0075 97.9787V103.379L5.00195 94.4475V89.0469Z" fill="#A45848"/>
<path d="M5.00195 97.7715L12.7131 102.341V106.288L5.00195 101.718V97.7715Z" fill="#A45848"/>
<path d="M65.0244 75.1935L130 37.5332V112.312L65.0244 149.972L65.0244 75.1935Z" fill="#D2714E"/>
<path d="M64.8296 75.2062L0.0507812 37.6175L32.6845 18.7559L97.6603 56.145L64.8296 75.2062Z" fill="#FEB96B"/>
<rect width="43.0649" height="42.9574" transform="matrix(0.866745 -0.498752 0 1 81.5176 80.4785)" fill="#A45848"/>
<path d="M94.7624 103.439L87.9665 97.5328L85.7012 102.039L94.7624 109.914L114.179 71.2907L111.914 69.322L94.7624 103.439Z" fill="white"/>
</svg>
