<svg width="120" height="120" viewBox="0 0 120 120" fill="none" xmlns="http://www.w3.org/2000/svg">
<path d="M0 60C0 26.8629 26.8629 0 60 0C93.1371 0 120 26.8629 120 60C120 93.1371 93.1371 120 60 120C26.8629 120 0 93.1371 0 60Z" fill="#008ACE"/>
<path d="M69.5801 32.0725C67.1476 29.4463 63.7501 28 60.0001 28C56.2301 28 52.8214 29.4375 50.4001 32.0475C47.9526 34.6862 46.7601 38.2725 47.0401 42.145C47.5951 49.785 53.4089 56 60.0001 56C66.5914 56 72.3951 49.7862 72.9589 42.1475C73.2426 38.31 72.0426 34.7313 69.5801 32.0725Z" fill="white"/>
<path d="M82.0007 84H38.0007C37.4248 84.0075 36.8544 83.8865 36.3312 83.6458C35.8079 83.4052 35.3448 83.0509 34.9757 82.6087C34.1632 81.6375 33.8357 80.3113 34.0782 78.97C35.1332 73.1175 38.4257 68.2013 43.6007 64.75C48.1982 61.6862 54.022 60 60.0007 60C65.9795 60 71.8032 61.6875 76.4007 64.75C81.5757 68.2 84.8682 73.1163 85.9232 78.9688C86.1657 80.31 85.8382 81.6362 85.0257 82.6075C84.6567 83.0499 84.1937 83.4044 83.6704 83.6453C83.1471 83.8862 82.5767 84.0073 82.0007 84Z" fill="white"/>
</svg>
