<svg width="130" height="150" viewBox="0 0 130 150" fill="none" xmlns="http://www.w3.org/2000/svg">
<path d="M64.6563 0L130.001 37.5335V112.312L64.6562 74.7783L64.6563 0Z" fill="#D2714E"/>
<path d="M0 37.5337L64.9759 0.144531L64.9759 74.9229L1.6529e-06 112.312L0 37.5337Z" fill="#A45848"/>
<path d="M97.6575 56.146L32.6816 18.7568L65.0239 0.0410156L130 37.4302L97.6575 56.146Z" fill="#F39649"/>
<path d="M0.0488298 37.5605L65.0247 75.1929V149.999L0.0488281 112.339L0.0488298 37.5605Z" fill="#F39649"/>
<path fill-rule="evenodd" clip-rule="evenodd" d="M59.2871 118.099L41.2383 107.713L41.2383 128.485L59.2871 138.871L59.2871 118.099ZM53.6105 121.365L46.9149 117.512L46.9149 125.218L53.6105 129.071L53.6105 121.365Z" fill="white"/>
<path d="M5.00195 89.0469L20.0075 97.9787V103.379L5.00195 94.4475V89.0469Z" fill="#A45848"/>
<path d="M5.00195 97.7715L12.7131 102.341V106.288L5.00195 101.718V97.7715Z" fill="#A45848"/>
<path d="M65.0234 75.1935L129.999 37.5332V112.312L65.0234 149.972L65.0234 75.1935Z" fill="#D2714E"/>
<path d="M64.8296 75.2062L0.0507812 37.6175L32.6845 18.7559L97.6603 56.145L64.8296 75.2062Z" fill="#FEB96B"/>
<rect width="43.0649" height="42.9574" transform="matrix(0.866745 -0.498752 0 1 81.5176 80.4785)" fill="#A45848"/>
<path d="M98.0329 98.3989C98.0329 96.5537 98.2318 94.9687 98.6296 93.6438C99.0274 92.3189 99.8109 90.6679 100.98 88.691C102.162 86.6932 102.909 85.3267 103.222 84.5914C103.705 83.4677 103.946 82.4133 103.946 81.4283C103.946 80.1242 103.662 79.2953 103.096 78.9415C102.541 78.5669 101.722 78.6918 100.637 79.3161C99.6 79.9126 98.7622 80.7346 98.1233 81.7821C97.4964 82.8087 97.183 83.8978 97.183 85.0492L92.7891 87.5777C92.8132 85.1082 93.5365 82.7497 94.9589 80.5023C96.3934 78.2478 98.286 76.4443 100.637 75.0917C103.06 73.6974 104.946 73.3193 106.296 73.9575C107.659 74.5887 108.34 76.1738 108.34 78.7126C108.34 80.9739 107.423 83.7278 105.591 86.9742L103.367 90.772C102.571 92.2703 102.162 94.0253 102.138 96.0369L98.0329 98.3989ZM97.7255 105.048C97.7255 104.229 97.9485 103.442 98.3945 102.686C98.8405 101.916 99.4433 101.312 100.203 100.875C100.974 100.431 101.583 100.345 102.029 100.615C102.475 100.872 102.698 101.396 102.698 102.186C102.698 102.949 102.481 103.712 102.047 104.475C101.613 105.238 100.998 105.849 100.203 106.307C99.4071 106.764 98.7923 106.862 98.3583 106.598C97.9364 106.327 97.7255 105.811 97.7255 105.048Z" fill="white"/>
</svg>
