<svg width="120" height="120" viewBox="0 0 120 120" fill="none" xmlns="http://www.w3.org/2000/svg">
<path d="M0 60C0 26.8629 26.8629 0 60 0C93.1371 0 120 26.8629 120 60C120 93.1371 93.1371 120 60 120C26.8629 120 0 93.1371 0 60Z" fill="#008ACE"/>
<path d="M38.5217 39.5217V33H42.8696V39.5217H49.3913V43.8696H42.8696V50.3913H38.5217V43.8696H32V39.5217H38.5217ZM45.0435 52.5652V46.0435H51.5652V39.5217H66.7826L70.7609 43.8696H77.6522C80.0435 43.8696 82 45.8261 82 48.2174V74.3043C82 76.6957 80.0435 78.6522 77.6522 78.6522H42.8696C40.4783 78.6522 38.5217 76.6957 38.5217 74.3043V52.5652H45.0435ZM60.2609 72.1304C66.2609 72.1304 71.1304 67.2609 71.1304 61.2609C71.1304 55.2609 66.2609 50.3913 60.2609 50.3913C54.2609 50.3913 49.3913 55.2609 49.3913 61.2609C49.3913 67.2609 54.2609 72.1304 60.2609 72.1304ZM53.3043 61.2609C53.3043 65.1087 56.413 68.2174 60.2609 68.2174C64.1087 68.2174 67.2174 65.1087 67.2174 61.2609C67.2174 57.413 64.1087 54.3043 60.2609 54.3043C56.413 54.3043 53.3043 57.413 53.3043 61.2609Z" fill="white"/>
</svg>
